<svg xmlns="http://www.w3.org/2000/svg" width="161" height="23.73" viewBox="0 0 161 23.73">
    <g id="Group_3032" dataname="Group 3032" transform="translate(-11.304 -72.256)">
        <path id="Path_24" dataname="Path 24" d="M40.322,72.256c.034.04.083.031.125.033.319.007.638.009.957.02.371.012.739.031,1.109.051.272.015.547.035.823.055a10.857,10.857,0,0,1,2.317.391,4.173,4.173,0,0,1,1.18.539,2.428,2.428,0,0,1,1.038,1.55,3.79,3.79,0,0,1,.049,1.182A8.482,8.482,0,0,1,47.4,78.13a22.275,22.275,0,0,1-1.109,2.462c-.042.079-.086.154-.133.233a.677.677,0,0,1-.049.07,4.388,4.388,0,0,1-.547.009c-.193,0-.384,0-.577,0H39.948c-.193,0-.384,0-.575,0a3.666,3.666,0,0,1-.565-.016c.023-.059.04-.106.06-.15a4.35,4.35,0,0,0,.3-.807,1.9,1.9,0,0,0,.056-.475,1.109,1.109,0,0,0-.563-.963,2.61,2.61,0,0,0-.786-.3,5.36,5.36,0,0,0-1.007-.126c-.235-.007-.472-.016-.707-.016q-2.953,0-5.9,0c-.656,0-1.315.027-1.969.089a12.925,12.925,0,0,0-1.591.24,5.652,5.652,0,0,0-1.25.416,3.7,3.7,0,0,0-.752.489A6.386,6.386,0,0,0,23.584,80.5,11.685,11.685,0,0,0,22.577,82.2c-.47.971-.929,1.947-1.392,2.922-.2.421-.4.842-.584,1.268a6.806,6.806,0,0,0-.428,1.308,3.107,3.107,0,0,0-.062.856A1.287,1.287,0,0,0,20.72,89.6a2.967,2.967,0,0,0,.862.355,8.084,8.084,0,0,0,1.207.21,16.938,16.938,0,0,0,1.873.079q2.233,0,4.467,0c.638,0,1.275-.022,1.911-.075a11.988,11.988,0,0,0,1.649-.237,4.686,4.686,0,0,0,1.31-.47,4.276,4.276,0,0,0,1.1-.889,6.03,6.03,0,0,0,.869-1.3c.074-.148.151-.292.227-.443h7.369a.292.292,0,0,1-.047.2c-.125.294-.249.587-.379.88a20.142,20.142,0,0,1-1.337,2.559,12.287,12.287,0,0,1-1.84,2.322,10.07,10.07,0,0,1-2.422,1.734,11.671,11.671,0,0,1-2.827.991,16.9,16.9,0,0,1-1.7.277c-.635.072-1.27.125-1.91.153a.456.456,0,0,0-.242.037H17.207a1.377,1.377,0,0,0-.2-.037c-.452-.023-.9-.065-1.35-.119a8.358,8.358,0,0,1-1.424-.282,4.751,4.751,0,0,1-1.521-.741,3.251,3.251,0,0,1-1.1-1.461,3.848,3.848,0,0,1-.226-.945c-.011-.086,0-.182-.077-.249v-.5c.075-.067.07-.158.084-.246.031-.221.058-.444.1-.663a12.069,12.069,0,0,1,.68-2.15c.278-.686.6-1.351.921-2.021q1.218-2.58,2.437-5.16a23.771,23.771,0,0,1,1.591-2.9,15.248,15.248,0,0,1,2.057-2.564,11.7,11.7,0,0,1,1.218-1.054,10.158,10.158,0,0,1,1.962-1.149,14.047,14.047,0,0,1,2.522-.831,21.953,21.953,0,0,1,3.271-.5c.191-.016.384-.034.575-.044.33-.02.661-.043.993-.056s.652-.014.975-.02c.044,0,.093.007.124-.033Z" fill="#ec2027" fillRule="evenodd"></path>
        <path id="Path_25" dataname="Path 25" d="M158.424,72.5c-.2.137-.4.275-.6.414q-2.132,1.531-4.264,3.059-4.154,2.974-8.3,5.947-1.277.915-2.555,1.831c-.062.042-.123.091-.182.135a.439.439,0,0,0,.077.2q1.11,2.216,2.226,4.433,1.037,2.069,2.078,4.141.705,1.4,1.406,2.79c.03.062.058.124.1.2a.388.388,0,0,1-.1.022c-.049,0-.1,0-.151,0h-9.127c-.152-.266-.27-.54-.405-.807s-.262-.54-.4-.81-.27-.55-.4-.824-.267-.539-.4-.807-.263-.539-.394-.81-.265-.539-.4-.81-.263-.538-.4-.807-.268-.552-.405-.827-.266-.537-.4-.807-.263-.535-.392-.8a.433.433,0,0,0-.2.106q-1.162.8-2.317,1.6-4.564,3.149-9.125,6.306a.552.552,0,0,1-.335.109q-4.551,0-9.1,0h-.133c-.027-.06.026-.068.051-.086.47-.321.94-.639,1.41-.958q2.156-1.466,4.309-2.932l3.757-2.55q1.913-1.3,3.816-2.6,1.863-1.267,3.723-2.533a.408.408,0,0,0,.171-.148c-.186-.416-.4-.83-.6-1.249s-.4-.84-.605-1.259-.408-.852-.614-1.277-.4-.841-.607-1.26-.4-.84-.607-1.259-.4-.84-.6-1.26-.412-.852-.617-1.277-.4-.84-.605-1.259-.4-.833-.605-1.257a.417.417,0,0,1,.224-.032c.607,0,1.214,0,1.821,0q.8,0,1.61,0l5.191-.012h.215a.427.427,0,0,1,.118.193q.582,1.313,1.161,2.627,1.138,2.575,2.278,5.149c.023.051.051.1.084.16.072-.047.129-.084.185-.125q2.205-1.579,4.408-3.16,3.273-2.352,6.553-4.7c.249-.181.144-.144.454-.144q2.062,0,4.12,0l4.218-.007c.056,0,.114,0,.17-.007Z" transform="translate(13.88 0.027)" fill="#ec2027" fillRule="evenodd"></path>
        <path id="Path_26" dataname="Path 26" d="M125.869,72.5a.154.154,0,0,1-.007.058q-1.306,2.781-2.623,5.566h-.22c-.619,0-1.239,0-1.86,0q-8.27,0-16.539.011c-.082,0-.163,0-.254.007-.286.578-.553,1.157-.825,1.734s-.543,1.138-.807,1.721c.049.01.074.019.093.022h17.386c.082,0,.161,0,.24,0l.01.031a.024.024,0,0,1,0,.018l-2.228,4.73a.387.387,0,0,1-.041.065c0,.011-.015.019-.037.04h-17.72c-.1.144-1.593,3.295-1.682,3.534a.479.479,0,0,0,.1.031c.056,0,.116,0,.171,0,.92,0,1.84,0,2.76,0l15.791-.012h.26c.037.068,0,.11-.023.152-.208.446-.419.89-.629,1.335q-.928,1.967-1.856,3.93c-.028.065-.062.125-.1.191-.077,0-.146,0-.215,0l-11.807.007q-6.352,0-12.706,0c-.486,0-.972.009-1.458.009-.068,0-.14,0-.2,0-.044-.058-.007-.093.01-.131.174-.371.346-.741.521-1.109q1.371-2.9,2.742-5.8,1.756-3.716,3.507-7.429,1.979-4.191,3.961-8.383c.049-.109.1-.218.157-.328a.806.806,0,0,1,.233-.014h9.448q8.1-.007,16.2-.011A.589.589,0,0,1,125.869,72.5Z" transform="translate(10.495 0.031)" fill="#ec2027" fillRule="evenodd"></path>
        <path id="Path_27" dataname="Path 27" d="M70.332,72.509c.011.082.025.144.03.208.031.375.059.752.089,1.127.033.412.068.827.1,1.239.017.186.031.371.047.555q.077.944.151,1.889c.031.394.059.791.091,1.184s.066.775.1,1.164.059.765.089,1.147c.033.408.066.814.1,1.222l.047.552q.075.955.152,1.91c.044.561.085,1.119.129,1.68s.093,1.1.137,1.644c.033.392.059.787.091,1.182s.066.789.1,1.184c.031.363.059.724.089,1.089q.049.649.1,1.3c.028.381.057.763.089,1.147.031.405.066.814.1,1.219.012.177.024.355.035.526-.023.016-.035.027-.044.027q-3.909.007-7.822.008c-.035,0-.073-.008-.121-.012-.056-.253-.074-.506-.109-.756s-.067-.506-.1-.761-.065-.519-.1-.779-.068-.505-.1-.758-.064-.505-.1-.765a.763.763,0,0,0-.117-.026c-.058,0-.114,0-.171,0H49.387c-.3,0-.221-.037-.452.177q-1.93,1.793-3.859,3.586a.361.361,0,0,1-.272.1q-1.85,0-3.7,0H37.272c-.068,0-.137,0-.23-.007a1.294,1.294,0,0,1,.1-.119c.6-.577,1.2-1.151,1.792-1.727.428-.413.852-.828,1.28-1.24q.778-.753,1.559-1.5c.317-.305.632-.614.949-.917.442-.428.884-.852,1.324-1.277.308-.3.617-.6.922-.894l1.351-1.3c.308-.3.617-.594.922-.891.451-.437.9-.869,1.351-1.3l.922-.894c.451-.435.9-.87,1.351-1.3.324-.31.643-.623.964-.933.43-.417.865-.832,1.3-1.249.315-.305.632-.614.949-.92.439-.426.882-.852,1.324-1.277l.949-.921c.439-.426.882-.849,1.324-1.277l.949-.917,1.324-1.277q.462-.446.92-.894c.2-.191.134-.16.384-.16h8.7C70.068,72.5,70.187,72.506,70.332,72.509ZM63.7,86.248a.516.516,0,0,0,0-.212c-.007-.069-.017-.137-.024-.209-.031-.343-.058-.687-.091-1.029-.044-.47-.091-.942-.137-1.412-.051-.539-.1-1.08-.151-1.619s-.1-1.106-.153-1.659c-.058-.619-.111-1.235-.168-1.852a.209.209,0,0,0-.051-.166c-.069.019-.109.079-.158.128l-1.344,1.313q-.93.909-1.864,1.819c-.275.266-.55.537-.823.8-.589.575-1.182,1.149-1.771,1.725-.311.3-.621.609-.934.909-.454.448-.913.891-1.373,1.337-.033.035-.064.075-.1.124a.389.389,0,0,0,.077.03c.065,0,.128,0,.191,0l3.909-.016c.812,0,1.624,0,2.435,0h2.32A.558.558,0,0,0,63.7,86.248Z" transform="translate(3.485 0.033)" fill="#ec2027" fillRule="evenodd"></path>
        <path id="Path_28" dataname="Path 28" d="M72.173,95.673a.421.421,0,0,1,.07-.2q.5-1.068,1.007-2.131,1.616-3.428,3.238-6.857,1.655-3.508,3.313-7.013c.168-.358.338-.714.508-1.074.024-.055.044-.115.066-.17-.057-.051-.117-.035-.173-.035-.428,0-.856,0-1.284,0-.7,0-1.392,0-2.089,0q-3.1,0-6.191,0h-.217a.371.371,0,0,1,.014-.085c.115-.294,2.588-5.491,2.667-5.61h27.245c.027.069-.019.116-.042.165Q99.649,74.051,99,75.436,98.39,76.717,97.787,78c-.028.06-.057.115-.086.166a.39.39,0,0,1-.21.025c-.93,0-1.854,0-2.779,0q-3.386,0-6.766,0c-.084,0-.166,0-.257,0-.211.412-.4.833-.595,1.246s-.392.832-.589,1.247-.393.831-.59,1.249-.4.84-.6,1.264l-.588,1.246c-.2.416-.394.832-.589,1.247s-.393.832-.59,1.247-.392.831-.587,1.246-.393.832-.59,1.249-.391.831-.585,1.247l-.6,1.264c-.2.417-.392.831-.589,1.247s-.393.831-.588,1.246-.388.835-.589,1.238c-.16.025-6.756.04-7.161.018A.41.41,0,0,1,72.173,95.673Z" transform="translate(8.004 0.033)" fill="#ec2027" fillRule="evenodd"></path>
        <path id="Path_29" dataname="Path 29" d="M148.023,84.611a3.237,3.237,0,0,1,2.289.954,2.743,2.743,0,0,1,.463.63,3.345,3.345,0,0,1,.4,1.171,3.054,3.054,0,0,1-.027.954,3.18,3.18,0,0,1-.8,1.626,2.929,2.929,0,0,1-.891.649,3.227,3.227,0,0,1-1.615.33,3.286,3.286,0,0,1-1.248-.335,2.936,2.936,0,0,1-1.24-1.112,3.121,3.121,0,0,1-.461-1.266,3.181,3.181,0,0,1,.263-1.773,2.935,2.935,0,0,1,.987-1.222,3.419,3.419,0,0,1,1.314-.555A3.344,3.344,0,0,1,148.023,84.611Zm0,.246a2.907,2.907,0,1,0,2.905,2.92A2.907,2.907,0,0,0,148.025,84.857Z" transform="translate(18.081 1.673)" fill="#ec2027" fillRule="evenodd"></path>
        <path id="Path_30" dataname="Path 30" d="M149.885,89.275v.087c-.024.006-.042.017-.059.019-.229,0-.46,0-.69,0a.191.191,0,0,1-.159-.089c-.174-.213-.346-.426-.521-.639l-.655-.8c-.04-.049-.082-.1-.124-.144h-.339a.569.569,0,0,0-.026.129q0,.525,0,1.053a.548.548,0,0,0,.012.116.264.264,0,0,0,.2.211c.074.017.151.022.227.035a.365.365,0,0,1,.091.022c.01,0,.019.032.019.047s-.011.041-.026.047a.166.166,0,0,1-.074.016h-1.475c-.079,0-.119-.028-.112-.07.011-.058.06-.058.1-.06.024,0,.051,0,.075-.007a.311.311,0,0,0,.3-.3,1.909,1.909,0,0,0,.009-.228V86.4c0-.051,0-.1,0-.153a.282.282,0,0,0-.235-.284c-.056-.015-.114-.022-.176-.035,0-.033,0-.065-.006-.089a.109.109,0,0,1,.035-.026c.049,0,.1-.007.153-.007.505,0,1.006,0,1.512,0a4.3,4.3,0,0,1,.514.04,1.269,1.269,0,0,1,.614.251.779.779,0,0,1-.084,1.317,1.846,1.846,0,0,1-.422.179c-.052.016-.108.035-.17.058a1.13,1.13,0,0,0,.069.121c.305.386.612.77.917,1.156l.06.073A.834.834,0,0,0,149.885,89.275Zm-2.555-1.762a1.182,1.182,0,0,0,.419,0,1.234,1.234,0,0,0,.6-.19.677.677,0,0,0,.117-1.043,1.029,1.029,0,0,0-1.131-.234.237.237,0,0,0-.019.067c0,.435,0,.867,0,1.3A.545.545,0,0,0,147.33,87.513Z" transform="translate(18.259 1.834)" fill="#ec2027" fillRule="evenodd"></path>
    </g>
</svg>